# xmcd
#
# Track frame offsets:
#	150
#	18172
#	34805
#	48157
#	63730
#	81285
#	95847
#	114035
#	125205
#	143395
#	154857
#	177232
#	196317
#	212315
#	233152
#
# Disc length: 3342
#
# Revision: 1
# Processed by: cddbd v1.5.1PL0 Copyright (c) Steve Scherf et al.
# Submitted via: ExactAudioCopy v0.95a4
# Normalized: r0:TDELIM( - )
#
DISCID=c30d0c0f
DTITLE=Various Artist - Rhythm and Soul n°8
DYEAR=2000
DGENRE=Soul
TTITLE0=Lionel Richie - Say You, Say Me
TTITLE1=The Commodores - Still
TTITLE2=Marvin Gaye - How Sweet It Is (To Be Loved By You)
TTITLE3=Barry White - Let The Music Play
TTITLE4=Urban Species - Spiritual Love
TTITLE5=Tavares - More Than A Woman
TTITLE6=Donna Summer - On The Radio
TTITLE7=Jackson 5 - Dancing Machine
TTITLE8=Hot Chocolate - You Sexy Thing
TTITLE9=Sam and Dave - Hold On I'm Comin'
TTITLE10=Aretha Franklin - Jumpin' Jack Flash
TTITLE11=Mc Hammer - U Can't Touch This
TTITLE12=Pepsi and Shirlie - Heartache
TTITLE13=Johnny Gill - Wrap My Body Tight
TTITLE14=Zhane - Groove Thang
EXTD=
EXTT0=
EXTT1=
EXTT2=
EXTT3=
EXTT4=
EXTT5=
EXTT6=
EXTT7=
EXTT8=
EXTT9=
EXTT10=
EXTT11=
EXTT12=
EXTT13=
EXTT14=
PLAYORDER=
